<svg xmlns="http://www.w3.org/2000/svg" viewBox="0 0 512 512" role="img" aria-labelledby="title desc">
  <title>ksformat hex icon</title>
  <desc>A hex sticker style icon for the ksformat package with a formatting pipeline from values to labels.</desc>
  <defs>
    <linearGradient id="hexbg" x1="0" y1="0" x2="1" y2="1">
      <stop offset="0%" stop-color="#f7f3ec"/>
      <stop offset="100%" stop-color="#e7dcc8"/>
    </linearGradient>
    <linearGradient id="panel" x1="0" y1="0" x2="1" y2="1">
      <stop offset="0%" stop-color="#264760"/>
      <stop offset="100%" stop-color="#163246"/>
    </linearGradient>
  </defs>

  <path d="M256 26 430 122v268L256 486 82 390V122L256 26Z" fill="url(#hexbg)" stroke="#173147" stroke-width="18" stroke-linejoin="round"/>
  <path d="M256 62 399 141v230L256 450 113 371V141L256 62Z" fill="none" stroke="#d59b3d" stroke-width="8" stroke-linejoin="round" opacity="0.95"/>

  <rect x="112" y="142" width="288" height="196" rx="28" fill="url(#panel)"/>

  <rect x="134" y="164" width="244" height="42" rx="14" fill="#f8f5ef"/>
  <rect x="134" y="218" width="244" height="42" rx="14" fill="#f8f5ef"/>
  <rect x="134" y="272" width="244" height="42" rx="14" fill="#f8f5ef"/>

  <text x="150" y="191" font-family="Arial, Helvetica, sans-serif" font-size="22" font-weight="700" fill="#173147">A</text>
  <text x="150" y="245" font-family="Arial, Helvetica, sans-serif" font-size="22" font-weight="700" fill="#173147">I</text>
  <text x="150" y="299" font-family="Arial, Helvetica, sans-serif" font-size="22" font-weight="700" fill="#173147">P</text>

  <path d="M189 185h28" stroke="#d96c2c" stroke-width="8" stroke-linecap="round"/>
  <path d="M189 239h28" stroke="#d96c2c" stroke-width="8" stroke-linecap="round"/>
  <path d="M189 293h28" stroke="#d96c2c" stroke-width="8" stroke-linecap="round"/>

  <text x="234" y="191" font-family="Arial, Helvetica, sans-serif" font-size="21" font-weight="700" fill="#173147">Active</text>
  <text x="234" y="245" font-family="Arial, Helvetica, sans-serif" font-size="21" font-weight="700" fill="#173147">Inactive</text>
  <text x="234" y="299" font-family="Arial, Helvetica, sans-serif" font-size="21" font-weight="700" fill="#173147">Pending</text>

  <path d="M118 213c-10 0-18-8-18-18v-14c0-10 8-18 18-18" fill="none" stroke="#f1a340" stroke-width="8" stroke-linecap="round"/>
  <path d="M394 163c10 0 18 8 18 18v14c0 10-8 18-18 18" fill="none" stroke="#f1a340" stroke-width="8" stroke-linecap="round"/>
  <path d="M118 265c-10 0-18 8-18 18v14c0 10 8 18 18 18" fill="none" stroke="#f1a340" stroke-width="8" stroke-linecap="round"/>
  <path d="M394 317c10 0 18-8 18-18v-14c0-10-8-18-18-18" fill="none" stroke="#f1a340" stroke-width="8" stroke-linecap="round"/>

  <rect x="138" y="356" width="236" height="58" rx="18" fill="#f8f5ef" stroke="#d8c6ad" stroke-width="4"/>
  <text x="256" y="394" text-anchor="middle" font-family="Arial, Helvetica, sans-serif" font-size="34" font-weight="700" fill="#173147">ksformat</text>
</svg>